  <svg version="1.0" xmlns="http://www.w3.org/2000/svg"  width="1095.000000pt" height="978.000000pt" viewBox="0 0 1095.000000 978.000000"  preserveAspectRatio="xMidYMid meet"> <g transform="translate(0.000000,978.000000) scale(0.100000,-0.100000)" fill="#000000" stroke="none"> <path d="M5145 9279 c-230 -10 -590 -49 -617 -66 -15 -9 -7 -25 46 -91 66 -83 96 -134 146 -251 74 -175 100 -309 100 -523 0 -197 -40 -394 -111 -542 -11 -22 -19 -46 -19 -53 0 -14 22 -18 34 -6 26 26 322 98 491 119 109 13 181 15 330 10 239 -7 348 -24 380 -57 48 -50 145 -258 176 -379 10 -41 32 -124 49 -185 55 -200 77 -440 60 -666 -18 -249 -60 -442 -148 -681 -100 -269 -278 -589 -454 -816 -16 -19 -28 -44 -28 -55 0 -11 30 -53 68 -95 37 -41 79 -89 94 -106 l27 -31 52 55 c149 157 325 427 452 691 186 386 280 742 293 1113 8 217 -7 411 -40 515 -14 42 -32 105 -41 141 -9 36 -63 160 -120 275 -112 227 -131 269 -164 360 -13 33 -27 65 -33 72 -25 30 -255 77 -483 99 -147 14 -195 14 -358 4 -125 -9 -192 -9 -198 -3 -13 13 -13 32 0 138 25 202 3 424 -57 578 -43 111 -41 113 153 132 190 19 342 19 520 0 185 -19 182 -15 130 -165 -36 -103 -55 -234 -55 -371 0 -136 2 -139 95 -156 143 -27 205 -36 211 -31 3 3 7 68 9 144 4 162 33 312 81 421 8 17 14 35 14 40 0 28 144 267 193 321 13 13 17 26 11 31 -13 13 -179 35 -463 61 -146 14 -611 18 -826 9z"/> <path d="M4305 7841 c-304 -173 -551 -384 -754 -642 -42 -53 -89 -118 -106 -144 -16 -27 -47 -76 -68 -109 -139 -223 -271 -582 -311 -851 -56 -369 -43 -666 43 -1010 145 -582 511 -1096 1018 -1432 148 -98 417 -235 452 -231 26 3 26 3 29 113 2 61 0 120 -3 133 -4 17 -30 35 -98 68 -104 51 -102 50 -214 121 -142 90 -320 241 -428 362 -16 19 -46 53 -66 75 -128 145 -273 389 -353 593 -105 270 -151 516 -150 808 1 474 132 881 409 1275 124 175 361 407 537 525 55 38 71 55 94 103 38 79 114 273 114 289 0 25 -46 11 -145 -46z"/> <path d="M6506 7892 c-2 -4 1 -21 9 -37 7 -17 30 -72 50 -124 69 -178 65 -172 213 -284 346 -260 593 -585 747 -987 113 -294 158 -621 130 -938 -17 -195 -47 -350 -98 -502 -37 -112 -42 -125 -94 -238 -18 -41 -33 -76 -33 -78 0 -2 -34 -62 -77 -132 -213 -355 -527 -648 -893 -832 -47 -23 -91 -47 -97 -52 -9 -7 -13 -48 -13 -139 0 -152 -6 -148 121 -94 172 74 375 197 533 324 391 312 684 749 821 1226 58 203 78 325 100 610 7 83 -16 396 -36 495 -40 203 -61 283 -106 405 -185 506 -511 922 -958 1220 -119 80 -274 165 -298 165 -9 0 -18 -4 -21 -8z"/> <path d="M4745 7556 c-225 -90 -239 -102 -270 -225 -9 -36 -27 -97 -40 -136 -65 -195 -63 -611 5 -947 52 -254 176 -587 317 -848 38 -71 148 -250 175 -285 5 -5 31 -39 58 -75 147 -190 236 -296 439 -520 121 -133 216 -233 264 -278 36 -34 47 -65 28 -76 -22 -14 -172 -36 -241 -36 -69 0 -200 19 -242 35 -31 12 -20 33 56 105 41 39 76 80 79 91 4 15 -17 45 -80 117 -46 53 -91 100 -98 104 -39 23 -310 -284 -340 -385 -21 -70 -20 -183 3 -226 18 -37 21 -38 147 -66 44 -9 132 -31 195 -49 108 -29 125 -31 280 -30 164 0 167 1 343 47 97 26 186 47 197 47 41 0 69 22 85 68 19 57 19 109 -1 192 -17 75 -38 105 -156 224 -330 332 -626 696 -794 978 -167 278 -291 566 -344 798 -11 47 -24 105 -30 130 -37 163 -50 501 -26 678 24 174 93 467 131 559 8 19 15 39 15 44 0 18 -48 7 -155 -35z"/> <path d="M5360 3618 c-76 -38 -91 -111 -30 -143 16 -8 63 -18 105 -22 86 -7 116 -22 99 -50 -15 -25 -84 -28 -139 -8 -24 10 -52 14 -64 10 -24 -7 -39 -51 -23 -67 19 -19 136 -34 211 -27 82 7 120 29 133 74 19 74 -20 106 -141 114 -87 6 -111 20 -98 55 8 21 85 22 152 1 53 -15 75 -8 75 25 0 23 -15 34 -66 48 -69 20 -163 15 -214 -10z"/> <path d="M4884 3617 c-2 -7 -3 -78 -2 -157 l3 -145 28 -3 c39 -5 57 14 57 59 0 21 6 41 13 46 6 4 59 10 117 13 94 4 105 7 108 24 7 33 -21 43 -105 38 -89 -4 -133 8 -133 37 0 31 17 36 135 41 109 5 110 5 110 30 l0 25 -163 3 c-127 2 -164 0 -168 -11z"/> <path d="M5725 3618 c-3 -7 -4 -78 -3 -158 l3 -145 34 -3 c39 -4 51 9 51 53 1 55 10 60 127 65 106 5 108 5 108 29 0 32 -34 41 -121 35 -71 -5 -104 6 -104 36 0 30 27 38 129 39 70 0 98 4 109 15 13 12 13 18 2 30 -10 13 -40 16 -172 16 -118 0 -160 -3 -163 -12z"/> <path d="M2651 2395 c-83 -19 -163 -67 -211 -131 -52 -67 -70 -121 -77 -230 -8 -126 18 -215 85 -286 85 -91 156 -117 342 -124 122 -5 143 -3 221 19 47 13 108 39 135 56 53 35 107 102 102 126 -2 8 -42 34 -91 57 l-87 42 -43 -41 c-54 -51 -111 -73 -192 -73 -70 0 -136 20 -174 54 -72 64 -82 229 -17 292 63 61 129 78 232 60 66 -12 82 -20 179 -90 15 -11 175 54 189 77 14 23 -65 109 -133 146 -32 17 -87 37 -122 46 -79 18 -251 18 -338 0z"/> <path d="M3655 2398 c-116 -29 -187 -72 -237 -143 -48 -69 -63 -129 -63 -245 0 -97 2 -110 32 -172 73 -154 202 -218 442 -218 162 0 301 47 371 126 17 20 43 61 58 92 24 52 26 68 26 177 0 108 -2 126 -25 175 -72 156 -206 221 -449 219 -63 -1 -133 -6 -155 -11z m269 -189 c172 -48 184 -313 17 -379 -51 -21 -187 -19 -243 3 -84 33 -126 110 -115 213 9 84 61 145 141 165 48 11 157 10 200 -2z"/> <path d="M4414 2379 c-12 -20 -7 -481 6 -529 41 -155 146 -218 377 -228 279 -11 427 69 477 259 14 53 16 101 14 284 l-3 220 -115 0 -115 0 -5 -237 c-5 -221 -6 -238 -26 -265 -40 -53 -79 -68 -179 -68 -98 0 -139 15 -177 66 -18 24 -20 46 -22 255 -1 126 -5 235 -9 242 -11 16 -213 17 -223 1z"/> <path d="M5415 2377 c-3 -6 -4 -176 -3 -377 l3 -365 110 0 110 0 5 76 c3 42 11 83 18 91 10 13 48 17 195 21 205 5 249 16 324 81 51 44 73 104 73 201 0 164 -74 248 -240 274 -98 16 -589 14 -595 -2z m590 -207 c19 -18 25 -34 25 -65 0 -79 -59 -104 -242 -105 -98 0 -109 2 -128 22 -27 29 -29 132 -2 161 16 18 28 19 169 15 144 -4 154 -5 178 -28z"/> <path d="M6384 2378 c-6 -9 -10 -690 -5 -740 1 -5 178 -8 395 -8 326 0 396 2 405 14 7 9 11 42 9 88 l-3 73 -275 -4 c-311 -3 -310 -4 -313 66 -2 74 -5 73 264 73 l239 0 5 23 c4 13 5 46 3 73 l-3 49 -241 3 c-269 3 -268 3 -266 69 3 64 -4 63 298 63 315 0 294 -7 285 100 l-6 65 -392 3 c-296 2 -393 -1 -399 -10z"/> <path d="M7625 1998 c-3 -7 -4 -92 -3 -188 l3 -175 95 -3 c178 -5 266 23 305 98 44 85 21 193 -53 245 -43 30 -45 30 -193 34 -120 2 -150 1 -154 -11z m255 -83 c32 -17 39 -32 42 -93 2 -62 -25 -95 -90 -106 -42 -7 -56 -6 -77 8 -23 15 -25 22 -25 93 0 94 13 113 77 113 24 0 57 -7 73 -15z"/> <path d="M8124 1995 c-3 -8 -4 -70 -2 -137 4 -149 17 -180 86 -211 71 -32 190 -30 256 3 82 41 90 60 95 212 3 143 2 148 -54 148 -49 0 -55 -13 -55 -131 0 -98 -2 -110 -23 -134 -29 -34 -96 -44 -148 -22 -44 18 -49 38 -49 177 0 108 -1 110 -66 110 -21 0 -37 -6 -40 -15z"/> <path d="M3533 1452 c-27 -4 -39 -42 -34 -113 1 -19 57 -30 89 -18 32 12 89 127 65 130 -25 3 -101 4 -120 1z"/> <path d="M5498 1453 l-47 -4 -11 -56 c-11 -51 -10 -58 6 -70 23 -17 64 -17 90 1 11 8 31 37 44 66 20 44 22 53 10 61 -8 5 -22 8 -30 7 -8 -1 -36 -3 -62 -5z"/> <path d="M2440 1256 c-90 -16 -201 -64 -235 -103 -38 -44 -58 -105 -53 -164 12 -119 99 -161 363 -175 135 -6 185 -14 217 -30 24 -13 29 -20 26 -47 -2 -25 -11 -36 -38 -49 -67 -34 -271 -18 -400 31 -30 12 -62 21 -72 21 -17 0 -98 -135 -98 -164 0 -20 116 -63 226 -83 109 -20 304 -21 399 -4 150 29 222 92 239 213 23 155 -77 222 -354 240 -205 13 -229 18 -254 51 l-20 27 27 28 c26 26 33 27 136 30 118 4 228 -16 324 -60 41 -19 49 -20 61 -7 20 22 58 133 51 151 -8 20 -118 62 -216 82 -110 22 -243 27 -329 12z"/> <path d="M6374 1259 c-95 -12 -136 -26 -202 -68 -103 -67 -154 -174 -154 -323 0 -134 28 -212 101 -291 129 -138 409 -134 526 8 20 25 40 45 45 45 15 0 28 -33 33 -79 6 -64 21 -73 100 -65 52 5 67 10 68 23 5 104 -2 376 -10 384 -5 5 -94 11 -200 13 -217 3 -221 2 -221 -71 0 -72 4 -75 79 -75 78 0 113 -17 95 -47 -18 -29 -81 -45 -171 -41 -71 3 -87 7 -125 33 -25 17 -53 49 -66 75 -20 38 -23 55 -18 109 11 127 81 185 221 185 72 -1 87 -4 151 -37 l71 -36 86 45 c48 25 87 51 87 59 0 19 -90 90 -148 115 -51 23 -195 51 -251 49 -20 -1 -64 -5 -97 -10z"/> <path d="M3140 871 c0 -261 3 -372 11 -377 6 -4 184 -8 394 -10 316 -3 385 -1 394 10 7 9 11 43 9 88 l-3 73 -278 0 c-264 0 -279 1 -293 19 -8 11 -14 37 -14 58 0 67 15 71 268 67 119 -2 223 0 230 4 7 5 12 32 12 72 0 42 -4 65 -12 68 -7 2 -113 2 -234 -1 -216 -5 -222 -4 -243 17 -24 24 -27 68 -7 97 14 18 30 19 283 22 147 1 274 5 281 7 9 3 12 25 10 77 l-3 73 -402 3 -403 2 0 -369z"/> <path d="M4080 891 c0 -192 -2 -355 -5 -363 -11 -30 11 -38 118 -42 74 -3 109 -1 114 7 5 7 8 127 8 267 0 246 1 255 20 255 19 0 80 -122 210 -425 26 -61 47 -95 61 -100 11 -4 88 -8 171 -9 115 0 154 3 162 13 12 15 18 717 6 736 -10 15 -215 13 -216 -2 -1 -7 -1 -128 1 -269 2 -270 -1 -290 -41 -253 -10 9 -19 21 -19 26 0 7 -57 144 -142 338 -80 183 -59 170 -270 170 l-178 0 0 -349z"/> <path d="M5086 1232 c-3 -5 -6 -170 -7 -367 -1 -315 0 -360 14 -370 21 -15 773 -13 788 2 5 5 9 43 7 84 l-3 74 -276 0 c-312 0 -309 -1 -309 71 0 74 12 78 268 72 119 -3 223 -3 230 -1 8 3 12 27 12 74 0 48 -4 69 -12 70 -7 1 -111 0 -231 -1 -186 -2 -221 0 -242 14 -31 20 -34 77 -7 104 17 17 41 19 285 20 146 0 271 3 277 7 14 9 13 128 -2 143 -14 14 -783 18 -792 4z"/> <path d="M7274 1232 c-13 -8 -44 -79 -109 -252 -50 -133 -104 -274 -146 -379 -39 -99 -38 -111 9 -112 20 0 67 -2 104 -4 78 -4 87 3 113 81 11 36 24 55 41 63 38 17 314 15 340 -3 11 -8 29 -39 39 -70 10 -30 26 -58 34 -62 9 -3 62 -8 119 -10 83 -4 103 -2 108 10 6 16 -12 67 -126 361 -46 116 -91 231 -100 257 -10 26 -26 64 -37 85 l-18 38 -180 2 c-99 2 -185 0 -191 -5z m203 -174 c6 -7 15 -26 21 -43 6 -16 20 -55 32 -85 36 -91 40 -111 29 -131 -8 -17 -22 -19 -103 -19 -126 0 -130 5 -92 114 46 133 67 176 86 176 10 0 22 -6 27 -12z"/> <path d="M8027 1233 c-12 -11 -8 -731 4 -738 6 -4 163 -9 349 -10 251 -3 342 -1 353 8 11 9 16 36 19 97 l3 85 -240 2 c-214 2 -241 4 -252 20 -10 12 -13 80 -13 264 0 136 -3 254 -6 263 -5 13 -24 16 -108 16 -57 0 -106 -3 -109 -7z"/> </g> </svg> 