<svg xmlns="http://www.w3.org/2000/svg" width="365" height="326" viewBox="0 0 365 326" version="1.1"><path d="M 139 69 C 140.958 70.266, 142.282 70.266, 141.500 69 C 141.160 68.450, 140.121 68.007, 139.191 68.015 C 137.734 68.029, 137.707 68.165, 139 69 M 138.667 70.667 C 137.699 71.634, 137.848 76, 138.848 76 C 139.314 76, 139.734 74.650, 139.781 73 C 139.871 69.845, 139.747 69.586, 138.667 70.667 M 227.658 74.551 C 227.964 75.348, 228.616 76, 229.107 76 C 230.545 76, 230.133 74.265, 228.551 73.658 C 227.582 73.286, 227.286 73.582, 227.658 74.551 M 132.275 76 C 132.155 77.586, 132.741 78, 135.102 78 C 137.595 78, 137.869 77.774, 136.789 76.611 C 135.855 75.604, 135.298 75.535, 134.765 76.361 C 134.297 77.087, 134.025 76.865, 134.015 75.750 C 133.994 73.322, 132.460 73.542, 132.275 76 M 231.166 78.876 C 230.054 79.581, 230.054 79.804, 231.166 80.214 C 232.859 80.838, 235 80.113, 235 78.917 C 235 77.775, 232.938 77.753, 231.166 78.876 M 238.275 80 C 238.192 81.100, 238.546 82, 239.062 82 C 239.578 82, 240 81.100, 240 80 C 240 78.900, 239.646 78, 239.213 78 C 238.780 78, 238.358 78.900, 238.275 80 M 128 80.067 C 128 80.680, 127.147 80.864, 126 80.500 C 124.900 80.151, 124 80.250, 124 80.720 C 124 82.166, 127.796 81.951, 129.056 80.433 C 129.902 79.413, 129.921 79, 129.122 79 C 128.505 79, 128 79.480, 128 80.067 M 244 91.345 C 244 92.085, 245.012 93.542, 246.250 94.584 C 247.488 95.626, 248.161 96.069, 247.746 95.569 C 247.332 95.069, 247.631 93.686, 248.410 92.496 C 249.585 90.703, 249.596 90.333, 248.469 90.333 C 247.722 90.333, 247.199 90.765, 247.306 91.292 C 247.412 91.819, 246.866 92.480, 246.091 92.761 C 245.114 93.116, 244.874 92.771, 245.309 91.636 C 245.655 90.736, 245.501 90, 244.969 90 C 244.436 90, 244 90.605, 244 91.345 M 111.033 101.728 C 109.722 103.204, 109.758 103.307, 111.365 102.690 C 112.354 102.311, 113.352 102, 113.582 102 C 113.812 102, 114 101.550, 114 101 C 114 99.529, 112.703 99.847, 111.033 101.728 M 250.598 101.736 C 250.269 102.064, 250.036 103.271, 250.079 104.417 C 250.122 105.563, 250.385 105.938, 250.662 105.250 C 250.940 104.563, 251.804 104, 252.583 104 C 253.363 104, 254 103.598, 254 103.107 C 254 101.983, 251.399 100.934, 250.598 101.736 M 108.079 105.250 C 107.989 107.250, 108.848 107.439, 111 105.890 C 112.282 104.968, 112.255 104.890, 110.815 105.349 C 109.888 105.645, 108.911 105.350, 108.644 104.694 C 108.376 104.037, 108.122 104.287, 108.079 105.250 M 256.638 106.500 C 256.322 107.325, 256.499 108, 257.031 108 C 257.564 108, 258 107.325, 258 106.500 C 258 105.675, 257.823 105, 257.607 105 C 257.391 105, 256.955 105.675, 256.638 106.500 M 108.015 109.750 C 108.007 110.987, 108.450 112, 109 112 C 110.253 112, 110.253 110.939, 109 109 C 108.216 107.787, 108.028 107.931, 108.015 109.750 M 258.825 112.326 C 258.452 114.151, 258.592 114.808, 259.218 114.182 C 259.751 113.649, 260.011 112.377, 259.794 111.356 C 259.503 109.981, 259.251 110.233, 258.825 112.326 M 106.061 117 C 106.061 119.855, 106.249 120.178, 107.080 118.750 C 107.772 117.561, 107.772 116.439, 107.080 115.250 C 106.249 113.822, 106.061 114.145, 106.061 117 M 256.980 118.524 C 255.110 120.778, 256.195 121.038, 258.425 118.871 C 259.484 117.842, 259.876 117, 259.297 117 C 258.719 117, 257.676 117.686, 256.980 118.524 M 256.079 126.219 C 256.018 128.304, 256.369 128.796, 257.584 128.329 C 258.455 127.995, 258.747 127.447, 258.234 127.111 C 257.720 126.775, 257.043 125.825, 256.729 125 C 256.393 124.118, 256.125 124.621, 256.079 126.219 M 260 126.059 C 260 127.191, 260.430 127.852, 260.956 127.527 C 261.482 127.202, 261.659 126.275, 261.349 125.468 C 260.556 123.401, 260 123.644, 260 126.059 M 102.286 135.500 C 102.294 138.250, 102.488 139.256, 102.718 137.736 C 102.947 136.216, 102.941 133.966, 102.704 132.736 C 102.467 131.506, 102.279 132.750, 102.286 135.500 M 260.252 134.500 C 260.263 136.700, 260.468 137.482, 260.707 136.238 C 260.946 134.994, 260.937 133.194, 260.687 132.238 C 260.437 131.282, 260.241 132.300, 260.252 134.500 M 104.755 134.500 C 104.492 135.875, 104.665 137, 105.139 137 C 105.612 137, 106 135.875, 106 134.500 C 106 133.125, 105.827 132, 105.617 132 C 105.406 132, 105.018 133.125, 104.755 134.500 M 263.158 137 C 263.158 138.375, 263.385 138.938, 263.662 138.250 C 263.940 137.563, 263.940 136.438, 263.662 135.750 C 263.385 135.063, 263.158 135.625, 263.158 137 M 256.195 141.500 C 256.215 143.150, 256.439 143.704, 256.693 142.731 C 256.947 141.758, 256.930 140.408, 256.656 139.731 C 256.382 139.054, 256.175 139.850, 256.195 141.500 M 106 145.559 C 106 146.416, 106.450 146.840, 107 146.500 C 107.550 146.160, 108 145.459, 108 144.941 C 108 144.423, 107.550 144, 107 144 C 106.450 144, 106 144.702, 106 145.559 M 258 145.941 C 258 147.009, 258.450 148.160, 259 148.500 C 259.567 148.851, 260 148.010, 260 146.559 C 260 145.152, 259.550 144, 259 144 C 258.450 144, 258 144.873, 258 145.941 M 260.015 150.750 C 260.024 151.162, 260.467 152.175, 261 153 C 261.784 154.213, 261.972 154.069, 261.985 152.250 C 261.993 151.012, 261.550 150, 261 150 C 260.450 150, 260.007 150.338, 260.015 150.750 M 108.223 153.231 C 107.639 153.935, 106.856 155.859, 106.483 157.506 C 105.855 160.282, 105.962 160.219, 107.962 156.643 C 110.103 152.813, 110.259 150.778, 108.223 153.231 M 108.607 161.582 C 107.821 163.629, 107.817 168.517, 108.601 167.732 C 109.353 166.980, 110.335 160, 109.689 160 C 109.428 160, 108.941 160.712, 108.607 161.582 M 110 168.559 C 110 169.416, 110.450 169.840, 111 169.500 C 111.550 169.160, 112 168.459, 112 167.941 C 112 167.423, 111.550 167, 111 167 C 110.450 167, 110 167.702, 110 168.559 M 112 171 C 112 171.550, 112.450 172, 113 172 C 113.550 172, 114 171.550, 114 171 C 114 170.450, 113.550 170, 113 170 C 112.450 170, 112 170.450, 112 171 M 250 172 C 250 173.100, 250.408 174, 250.906 174 C 251.405 174, 251.577 173.100, 251.290 172 C 251.002 170.900, 250.594 170, 250.383 170 C 250.173 170, 250 170.900, 250 172 M 116 177.371 C 116 178.346, 116.734 179.877, 117.632 180.775 C 119.141 182.284, 119.208 182.222, 118.520 179.953 C 117.522 176.665, 116 175.106, 116 177.371 M 244 180 C 244 181.949, 245.061 182.606, 246.264 181.402 C 247.066 180.601, 246.017 178, 244.893 178 C 244.402 178, 244 178.900, 244 180 M 240.116 183.215 C 240.052 184.158, 240.900 185.411, 242 186 C 243.588 186.850, 244 186.760, 244 185.567 C 244 184.682, 243.418 184.286, 242.587 184.605 C 241.757 184.924, 240.981 184.396, 240.703 183.323 C 240.289 181.722, 240.218 181.709, 240.116 183.215 M 122.275 186 C 122.192 187.100, 122.546 188, 123.062 188 C 123.578 188, 124 187.100, 124 186 C 124 184.900, 123.646 184, 123.213 184 C 122.780 184, 122.358 184.900, 122.275 186 M 238.364 189 C 238.364 190.650, 238.780 192, 239.289 192 C 239.798 192, 239.936 191.275, 239.596 190.389 C 239.155 189.241, 239.408 188.942, 240.474 189.352 C 241.728 189.833, 241.772 189.608, 240.745 187.963 C 239.032 185.220, 238.364 185.511, 238.364 189 M 127 191.167 C 127 191.625, 127.423 192, 127.941 192 C 128.459 192, 129.114 191.625, 129.397 191.167 C 129.680 190.708, 129.257 190.333, 128.456 190.333 C 127.655 190.333, 127 190.708, 127 191.167 M 132 192.786 C 132 193.218, 132.900 193.571, 134 193.571 C 135.100 193.571, 136 193.218, 136 192.786 C 136 192.354, 135.100 192, 134 192 C 132.900 192, 132 192.354, 132 192.786 M 231 192.694 C 231.825 192.989, 233.058 193.933, 233.740 194.792 C 234.421 195.651, 235.289 196.045, 235.667 195.667 C 236.551 194.782, 232.965 192.049, 231 192.111 C 229.667 192.153, 229.667 192.217, 231 192.694 M 226.596 197.611 C 226.143 198.791, 226.404 199.059, 227.570 198.611 C 228.447 198.275, 229.352 198, 229.582 198 C 229.812 198, 230 197.550, 230 197 C 230 195.371, 227.267 195.862, 226.596 197.611 M 136.079 200.227 C 136.122 201.477, 136.384 201.941, 136.660 201.258 C 137.276 199.732, 140.580 201.265, 143.256 204.317 C 144.222 205.419, 145.262 206.071, 145.567 205.766 C 145.872 205.462, 144.969 204.060, 143.561 202.652 C 142.152 201.243, 141 200.347, 141 200.660 C 141 200.974, 139.875 200.493, 138.500 199.592 C 136.084 198.009, 136.003 198.030, 136.079 200.227 M 142 198.378 C 142 198.585, 142.685 199.324, 143.523 200.019 C 144.796 201.076, 144.943 201.014, 144.416 199.641 C 143.878 198.240, 142 197.257, 142 198.378 M 227.596 201.609 C 227.247 202.521, 226.342 202.961, 225.492 202.635 C 224.671 202.320, 224 202.499, 224 203.031 C 224 203.564, 224.563 203.986, 225.250 203.968 C 227.164 203.920, 230.245 201.269, 229.165 200.602 C 228.639 200.277, 227.934 200.731, 227.596 201.609 M 218 203 C 218 203.550, 218.900 204, 220 204 C 221.100 204, 222 203.550, 222 203 C 222 202.450, 221.100 202, 220 202 C 218.900 202, 218 202.450, 218 203 M 150 205 C 150 205.550, 150.450 206, 151 206 C 151.550 206, 152 205.550, 152 205 C 152 204.450, 151.550 204, 151 204 C 150.450 204, 150 204.450, 150 205" stroke="none" fill="#bf1b25" fill-rule="evenodd"/><path d="M 142.084 64.767 C 137.872 67.214, 137.775 67.373, 139.979 68.188 C 141.250 68.658, 142.039 69.295, 141.731 69.603 C 141.423 69.910, 140.204 69.645, 139.023 69.012 C 137.164 68.017, 136.274 68.354, 132.425 71.508 C 129.979 73.513, 128.230 75.563, 128.540 76.065 C 128.850 76.567, 128.478 76.737, 127.712 76.443 C 126.947 76.149, 125.715 76.639, 124.975 77.531 C 123.842 78.895, 123.856 79.296, 125.064 80.061 C 126.952 81.255, 128 81.234, 128 80 C 128 79.450, 128.505 79, 129.122 79 C 129.894 79, 129.852 79.474, 128.989 80.513 C 127.651 82.126, 124.954 82.134, 123.804 80.529 C 123.422 79.995, 122.931 79.770, 122.714 80.029 C 114.790 89.475, 109.472 98.337, 110.617 100.189 C 111.010 100.825, 110.861 101.032, 110.272 100.668 C 109.035 99.903, 105.884 106.917, 103.383 116 C 100.615 126.060, 100.847 147.011, 103.844 157.500 C 107.783 171.287, 121.056 193.319, 124.238 191.353 C 124.840 190.981, 125.020 191.158, 124.650 191.757 C 123.582 193.485, 135.143 203.158, 143.766 207.752 C 148.150 210.089, 152.246 212, 152.869 212 C 153.554 212, 154 210.101, 154 207.185 C 154 202.605, 153.817 202.284, 150.250 200.588 C 145.293 198.231, 135.231 190.976, 131.597 187.137 C 130 185.451, 128.243 184.350, 127.692 184.690 C 127.120 185.044, 127.002 184.805, 127.417 184.134 C 128.157 182.937, 123.290 176.321, 121.957 176.711 C 121.560 176.827, 121.271 176.377, 121.314 175.711 C 121.357 175.045, 119.782 171.125, 117.814 167 C 112.872 156.642, 110.780 147.401, 110.797 136.003 C 110.819 121.148, 114.999 107.200, 122.969 95.391 C 124.652 92.897, 125.764 90.428, 125.440 89.903 C 125.116 89.379, 125.447 89.074, 126.176 89.225 C 126.976 89.391, 127.413 88.709, 127.279 87.500 C 127.157 86.394, 127.320 86.100, 127.643 86.842 C 128.060 87.798, 129.331 87.106, 132.072 84.429 C 134.187 82.364, 135.641 80.229, 135.304 79.683 C 134.962 79.129, 135.197 79.004, 135.837 79.399 C 138.049 80.767, 144.860 73.990, 146.987 68.306 C 148.094 65.346, 149 62.717, 149 62.462 C 149 61.428, 146.255 62.343, 142.084 64.767 M 217.010 63.250 C 217.034 66.334, 222.017 74.775, 225.284 77.268 C 228.429 79.666, 229.204 79.864, 231.445 78.843 C 232.855 78.201, 234.331 77.998, 234.725 78.392 C 235.789 79.455, 232.932 80.906, 231.091 80.238 C 229.818 79.776, 229.877 80.090, 231.384 81.807 C 232.420 82.987, 233.770 83.666, 234.384 83.316 C 234.998 82.966, 235.197 83.017, 234.827 83.430 C 234.456 83.842, 236.399 86.952, 239.143 90.340 C 241.887 93.728, 245.861 100.034, 247.973 104.352 C 250.593 109.709, 251.952 111.616, 252.248 110.352 C 252.486 109.334, 252.675 110.300, 252.668 112.500 C 252.661 114.700, 253.233 119.200, 253.940 122.500 C 254.778 126.415, 255.044 132.496, 254.706 140 C 254.137 152.614, 252.047 160.553, 246.835 169.888 C 244.435 174.187, 244.097 175.458, 245.164 176.179 C 246.207 176.885, 246.150 177.019, 244.902 176.792 C 242.878 176.422, 237.604 182.550, 238.583 184.134 C 238.995 184.801, 238.880 185.044, 238.317 184.696 C 237.771 184.359, 235.688 185.759, 233.687 187.808 L 230.049 191.534 233.025 192.851 C 235.889 194.118, 237.069 196, 235 196 C 234.450 196, 234 195.539, 234 194.975 C 234 194.412, 232.907 193.535, 231.570 193.027 C 229.538 192.254, 228.031 192.831, 222.376 196.546 C 218.655 198.989, 214.799 201.247, 213.806 201.562 C 212.386 202.012, 212 203.190, 212 207.067 C 212 209.998, 212.448 212, 213.104 212 C 217.412 212, 239.810 196.701, 239.250 194.142 C 239.113 193.514, 239.563 193.113, 240.250 193.250 C 240.938 193.388, 241.376 192.904, 241.225 192.176 C 241.074 191.447, 241.377 191.115, 241.899 191.437 C 243.180 192.230, 250.344 183.366, 249.511 182.018 C 249.148 181.431, 249.422 181.074, 250.120 181.225 C 252.143 181.664, 260.249 165.169, 259.533 162.070 C 259.116 160.264, 259.220 159.923, 259.885 160.922 C 262.078 164.220, 265.483 142.839, 264.650 131 C 263.653 116.835, 258.203 100.205, 251.740 91.606 C 250.357 89.767, 250.268 89.779, 248.700 92.019 C 247.811 93.288, 247.367 94.815, 247.714 95.413 C 248.060 96.011, 247.366 95.643, 246.172 94.595 C 243.939 92.637, 243.249 90, 244.969 90 C 245.501 90, 245.655 90.736, 245.309 91.636 C 244.874 92.771, 245.114 93.116, 246.091 92.761 C 246.866 92.480, 247.387 91.744, 247.250 91.125 C 247.112 90.506, 247.562 90.112, 248.250 90.250 C 250.576 90.715, 249.518 87.924, 245.500 83.001 C 241.093 77.601, 240 77.004, 240 80 C 240 81.100, 239.530 82, 238.956 82 C 237.691 82, 238.103 78.783, 239.495 77.789 C 240.722 76.913, 236.918 73.933, 235.607 74.743 C 235.103 75.054, 234.981 74.840, 235.336 74.266 C 236.301 72.704, 229.498 67.893, 227.322 68.598 C 225.974 69.035, 225.848 68.939, 226.840 68.230 C 227.853 67.505, 227.030 66.629, 223.464 64.636 C 218.188 61.687, 216.996 61.431, 217.010 63.250 M 138.667 70.667 C 137.699 71.634, 137.848 76, 138.848 76 C 139.314 76, 139.734 74.650, 139.781 73 C 139.871 69.845, 139.747 69.586, 138.667 70.667 M 227.658 74.551 C 227.964 75.348, 228.616 76, 229.107 76 C 230.545 76, 230.133 74.265, 228.551 73.658 C 227.582 73.286, 227.286 73.582, 227.658 74.551 M 132.275 76 C 132.155 77.586, 132.741 78, 135.102 78 C 137.595 78, 137.869 77.774, 136.789 76.611 C 135.855 75.604, 135.298 75.535, 134.765 76.361 C 134.297 77.087, 134.025 76.865, 134.015 75.750 C 133.994 73.322, 132.460 73.542, 132.275 76 M 111.033 101.728 C 109.722 103.204, 109.758 103.307, 111.365 102.690 C 112.354 102.311, 113.352 102, 113.582 102 C 113.812 102, 114 101.550, 114 101 C 114 99.529, 112.703 99.847, 111.033 101.728 M 250.598 101.736 C 250.269 102.064, 250.036 103.271, 250.079 104.417 C 250.122 105.563, 250.385 105.938, 250.662 105.250 C 250.940 104.563, 251.804 104, 252.583 104 C 253.363 104, 254 103.598, 254 103.107 C 254 101.983, 251.399 100.934, 250.598 101.736 M 108.079 105.250 C 107.989 107.250, 108.848 107.439, 111 105.890 C 112.282 104.968, 112.255 104.890, 110.815 105.349 C 109.888 105.645, 108.911 105.350, 108.644 104.694 C 108.376 104.037, 108.122 104.287, 108.079 105.250 M 256.638 106.500 C 256.322 107.325, 256.499 108, 257.031 108 C 257.564 108, 258 107.325, 258 106.500 C 258 105.675, 257.823 105, 257.607 105 C 257.391 105, 256.955 105.675, 256.638 106.500 M 108.015 109.750 C 108.007 110.987, 108.450 112, 109 112 C 110.253 112, 110.253 110.939, 109 109 C 108.216 107.787, 108.028 107.931, 108.015 109.750 M 258.825 112.326 C 258.452 114.151, 258.592 114.808, 259.218 114.182 C 259.751 113.649, 260.011 112.377, 259.794 111.356 C 259.503 109.981, 259.251 110.233, 258.825 112.326 M 106.061 117 C 106.061 119.855, 106.249 120.178, 107.080 118.750 C 107.772 117.561, 107.772 116.439, 107.080 115.250 C 106.249 113.822, 106.061 114.145, 106.061 117 M 256.980 118.524 C 255.110 120.778, 256.195 121.038, 258.425 118.871 C 259.484 117.842, 259.876 117, 259.297 117 C 258.719 117, 257.676 117.686, 256.980 118.524 M 256.079 126.219 C 256.018 128.304, 256.369 128.796, 257.584 128.329 C 258.455 127.995, 258.747 127.447, 258.234 127.111 C 257.720 126.775, 257.043 125.825, 256.729 125 C 256.393 124.118, 256.125 124.621, 256.079 126.219 M 260 126.059 C 260 127.191, 260.430 127.852, 260.956 127.527 C 261.482 127.202, 261.659 126.275, 261.349 125.468 C 260.556 123.401, 260 123.644, 260 126.059 M 102.286 135.500 C 102.294 138.250, 102.488 139.256, 102.718 137.736 C 102.947 136.216, 102.941 133.966, 102.704 132.736 C 102.467 131.506, 102.279 132.750, 102.286 135.500 M 260.252 134.500 C 260.263 136.700, 260.468 137.482, 260.707 136.238 C 260.946 134.994, 260.937 133.194, 260.687 132.238 C 260.437 131.282, 260.241 132.300, 260.252 134.500 M 104.755 134.500 C 104.492 135.875, 104.665 137, 105.139 137 C 105.612 137, 106 135.875, 106 134.500 C 106 133.125, 105.827 132, 105.617 132 C 105.406 132, 105.018 133.125, 104.755 134.500 M 263.158 137 C 263.158 138.375, 263.385 138.938, 263.662 138.250 C 263.940 137.563, 263.940 136.438, 263.662 135.750 C 263.385 135.063, 263.158 135.625, 263.158 137 M 256.195 141.500 C 256.215 143.150, 256.439 143.704, 256.693 142.731 C 256.947 141.758, 256.930 140.408, 256.656 139.731 C 256.382 139.054, 256.175 139.850, 256.195 141.500 M 106 145.559 C 106 146.416, 106.450 146.840, 107 146.500 C 107.550 146.160, 108 145.459, 108 144.941 C 108 144.423, 107.550 144, 107 144 C 106.450 144, 106 144.702, 106 145.559 M 258 145.941 C 258 147.009, 258.450 148.160, 259 148.500 C 259.567 148.851, 260 148.010, 260 146.559 C 260 145.152, 259.550 144, 259 144 C 258.450 144, 258 144.873, 258 145.941 M 260.015 150.750 C 260.024 151.162, 260.467 152.175, 261 153 C 261.784 154.213, 261.972 154.069, 261.985 152.250 C 261.993 151.012, 261.550 150, 261 150 C 260.450 150, 260.007 150.338, 260.015 150.750 M 108.223 153.231 C 107.639 153.935, 106.856 155.859, 106.483 157.506 C 105.855 160.282, 105.962 160.219, 107.962 156.643 C 110.103 152.813, 110.259 150.778, 108.223 153.231 M 108.607 161.582 C 107.821 163.629, 107.817 168.517, 108.601 167.732 C 109.353 166.980, 110.335 160, 109.689 160 C 109.428 160, 108.941 160.712, 108.607 161.582 M 110 168.559 C 110 169.416, 110.450 169.840, 111 169.500 C 111.550 169.160, 112 168.459, 112 167.941 C 112 167.423, 111.550 167, 111 167 C 110.450 167, 110 167.702, 110 168.559 M 112 171 C 112 171.550, 112.450 172, 113 172 C 113.550 172, 114 171.550, 114 171 C 114 170.450, 113.550 170, 113 170 C 112.450 170, 112 170.450, 112 171 M 250 172 C 250 173.100, 250.408 174, 250.906 174 C 251.405 174, 251.577 173.100, 251.290 172 C 251.002 170.900, 250.594 170, 250.383 170 C 250.173 170, 250 170.900, 250 172 M 116 177.371 C 116 178.346, 116.734 179.877, 117.632 180.775 C 119.141 182.284, 119.208 182.222, 118.520 179.953 C 117.522 176.665, 116 175.106, 116 177.371 M 244 180 C 244 181.949, 245.061 182.606, 246.264 181.402 C 247.066 180.601, 246.017 178, 244.893 178 C 244.402 178, 244 178.900, 244 180 M 240.116 183.215 C 240.052 184.158, 240.900 185.411, 242 186 C 243.588 186.850, 244 186.760, 244 185.567 C 244 184.682, 243.418 184.286, 242.587 184.605 C 241.757 184.924, 240.981 184.396, 240.703 183.323 C 240.289 181.722, 240.218 181.709, 240.116 183.215 M 122.275 186 C 122.192 187.100, 122.546 188, 123.062 188 C 123.578 188, 124 187.100, 124 186 C 124 184.900, 123.646 184, 123.213 184 C 122.780 184, 122.358 184.900, 122.275 186 M 238.364 189 C 238.364 190.650, 238.780 192, 239.289 192 C 239.798 192, 239.936 191.275, 239.596 190.389 C 239.155 189.241, 239.408 188.942, 240.474 189.352 C 241.728 189.833, 241.772 189.608, 240.745 187.963 C 239.032 185.220, 238.364 185.511, 238.364 189 M 127 191.167 C 127 191.625, 127.423 192, 127.941 192 C 128.459 192, 129.114 191.625, 129.397 191.167 C 129.680 190.708, 129.257 190.333, 128.456 190.333 C 127.655 190.333, 127 190.708, 127 191.167 M 132 192.786 C 132 193.218, 132.900 193.571, 134 193.571 C 135.100 193.571, 136 193.218, 136 192.786 C 136 192.354, 135.100 192, 134 192 C 132.900 192, 132 192.354, 132 192.786 M 226.596 197.611 C 226.143 198.791, 226.404 199.059, 227.570 198.611 C 228.447 198.275, 229.352 198, 229.582 198 C 229.812 198, 230 197.550, 230 197 C 230 195.371, 227.267 195.862, 226.596 197.611 M 136.079 200.227 C 136.122 201.477, 136.384 201.941, 136.660 201.258 C 137.276 199.732, 140.580 201.265, 143.256 204.317 C 144.222 205.419, 145.262 206.071, 145.567 205.766 C 145.872 205.462, 144.969 204.060, 143.561 202.652 C 142.152 201.243, 141 200.347, 141 200.660 C 141 200.974, 139.875 200.493, 138.500 199.592 C 136.084 198.009, 136.003 198.030, 136.079 200.227 M 142 198.378 C 142 198.585, 142.685 199.324, 143.523 200.019 C 144.796 201.076, 144.943 201.014, 144.416 199.641 C 143.878 198.240, 142 197.257, 142 198.378 M 227.596 201.609 C 227.247 202.521, 226.342 202.961, 225.492 202.635 C 224.671 202.320, 224 202.499, 224 203.031 C 224 203.564, 224.563 203.986, 225.250 203.968 C 227.164 203.920, 230.245 201.269, 229.165 200.602 C 228.639 200.277, 227.934 200.731, 227.596 201.609 M 218 203 C 218 203.550, 218.900 204, 220 204 C 221.100 204, 222 203.550, 222 203 C 222 202.450, 221.100 202, 220 202 C 218.900 202, 218 202.450, 218 203 M 150 205 C 150 205.550, 150.450 206, 151 206 C 151.550 206, 152 205.550, 152 205 C 152 204.450, 151.550 204, 151 204 C 150.450 204, 150 204.450, 150 205 M 162.748 204.703 C 162.512 205.141, 162.436 206.850, 162.578 208.500 C 162.721 210.150, 162.874 212.512, 162.919 213.750 C 162.966 215.047, 163.635 216, 164.500 216 C 166.308 216, 166.521 212.350, 164.750 211.727 C 164.063 211.485, 165.863 211.505, 168.750 211.771 C 173.131 212.174, 174 211.985, 174 210.627 C 174 209.434, 173.066 209, 170.500 209 C 168.575 209, 167 208.550, 167 208 C 167 207.450, 168.838 207, 171.083 207 C 173.903 207, 175.039 206.613, 174.754 205.750 C 174.293 204.351, 163.445 203.405, 162.748 204.703 M 177.571 205.571 C 175.758 207.385, 175.579 208.622, 177.004 209.502 C 177.556 209.843, 177.737 211.200, 177.406 212.518 C 176.916 214.472, 177.260 215.027, 179.282 215.535 C 185.624 217.126, 190.763 214.052, 188.314 210.132 C 187.420 208.700, 187.420 207.980, 188.313 207.087 C 189.207 206.193, 189.131 205.694, 187.992 204.974 C 185.632 203.482, 179.298 203.845, 177.571 205.571 M 191 209.950 C 191 214.434, 191.358 216, 192.383 216 C 193.144 216, 194.002 215.100, 194.290 214 C 194.690 212.468, 195.654 212, 198.406 212 C 200.934 212, 202 211.555, 202 210.500 C 202 209.452, 200.944 209, 198.500 209 C 196.575 209, 195 208.550, 195 208 C 195 207.450, 196.838 207, 199.083 207 C 205.563 207, 203.460 204.559, 196.671 204.200 L 191 203.900 191 209.950 M 181.198 207.531 C 182.192 208.526, 186.058 208.903, 185.468 207.948 C 185.146 207.426, 183.934 207, 182.774 207 C 181.615 207, 180.906 207.239, 181.198 207.531 M 180.269 211.693 C 181.242 211.947, 182.592 211.930, 183.269 211.656 C 183.946 211.382, 183.150 211.175, 181.500 211.195 C 179.850 211.215, 179.296 211.439, 180.269 211.693" stroke="none" fill="#b53237" fill-rule="evenodd"/><path d="" stroke="none" fill="#e40715" fill-rule="evenodd"/><path d="" stroke="none" fill="#de111b" fill-rule="evenodd"/><path d="M 171.500 76.127 C 168.750 76.649, 165.514 77.172, 164.310 77.288 C 161.879 77.523, 160.973 80.099, 158.890 92.692 C 157.963 98.295, 157.971 101.942, 158.925 109.192 C 162.025 132.741, 172.794 151.801, 198.176 178.663 C 203.273 184.058, 204 185.325, 204 188.820 C 204 192.320, 204.247 192.748, 206 192.290 C 207.100 192.002, 208 191.369, 208 190.883 C 208 190.398, 208.900 190, 210 190 C 211.100 190, 212 189.550, 212 189 C 212 188.450, 212.563 187.999, 213.250 187.999 C 213.938 187.998, 215.793 186.886, 217.372 185.527 C 218.952 184.169, 220.977 182.799, 221.872 182.484 C 222.768 182.168, 225.300 179.646, 227.500 176.879 C 229.700 174.112, 231.950 171.320, 232.500 170.674 C 233.434 169.577, 237.480 162.370, 239.054 159 C 240.546 155.805, 242 150.240, 242 147.726 C 242 146.278, 242.522 143.948, 243.161 142.546 C 244.377 139.877, 243.153 127.090, 240.860 118.500 C 239.543 113.565, 234.407 103.353, 231.877 100.638 C 230.845 99.530, 230 98.222, 230 97.733 C 230 96.889, 224.701 91.547, 220.089 87.742 C 218.018 86.033, 217.971 86.047, 218.416 88.242 C 220.474 98.391, 219.127 114.199, 215.150 126.569 C 211.632 137.512, 204.263 151.727, 198.349 158.977 C 197.666 159.815, 196.208 161.625, 195.110 163 L 193.112 165.500 189.444 161.871 L 185.776 158.242 190.732 150.871 C 203.310 132.165, 209.597 110.063, 207.051 93.500 C 205.338 82.360, 203.838 78, 201.716 78 C 200.700 78, 199.111 77.601, 198.184 77.114 C 195.586 75.747, 177.102 75.063, 171.500 76.127 M 139.147 93.849 C 136.202 97.022, 133.316 100.492, 132.732 101.559 C 132.148 102.627, 131.347 103.725, 130.951 104 C 129.937 104.705, 126.392 112.738, 124.994 117.500 C 124.348 119.700, 123.410 122.882, 122.910 124.571 C 121.710 128.621, 121.743 143.537, 122.960 147.429 C 123.488 149.118, 124.487 152.637, 125.179 155.250 C 125.871 157.863, 126.788 160, 127.218 160 C 127.648 160, 128 160.900, 128 162 C 128 163.100, 128.450 164, 129 164 C 129.550 164, 130 164.481, 130 165.070 C 130 167.865, 143.455 184, 145.785 184 C 146.246 184, 147.615 184.924, 148.826 186.053 C 150.038 187.182, 153.386 189.200, 156.265 190.537 L 161.500 192.969 161.800 188.591 C 162.054 184.893, 162.933 183.302, 167.452 178.356 L 172.803 172.500 175.901 175.437 C 179.567 178.912, 179.754 180.569, 176.829 183.682 C 175.636 184.952, 174.998 186.331, 175.413 186.746 C 176.379 187.712, 189.597 187.736, 190.560 186.773 C 190.960 186.373, 187.930 182.323, 183.826 177.773 C 172.590 165.316, 170.951 163.392, 166.293 157.201 C 153.490 140.184, 144.984 113.789, 146.490 95.750 C 147.293 86.135, 146.496 85.928, 139.147 93.849 M 110.158 136 C 110.158 137.375, 110.385 137.938, 110.662 137.250 C 110.940 136.563, 110.940 135.438, 110.662 134.750 C 110.385 134.063, 110.158 134.625, 110.158 136 M 235.405 185.250 L 233.500 187.500 235.750 185.595 C 237.864 183.805, 238.455 183, 237.655 183 C 237.465 183, 236.453 184.012, 235.405 185.250 M 230.405 190.250 L 228.500 192.500 230.750 190.595 C 232.864 188.805, 233.455 188, 232.655 188 C 232.465 188, 231.453 189.012, 230.405 190.250 M 125 194.500 C 126.866 196.425, 128.617 198, 128.892 198 C 129.167 198, 127.866 196.425, 126 194.500 C 124.134 192.575, 122.383 191, 122.108 191 C 121.833 191, 123.134 192.575, 125 194.500 M 240.924 193.750 L 238.500 196.500 241.250 194.076 C 242.762 192.742, 244 191.505, 244 191.326 C 244 190.541, 243.190 191.180, 240.924 193.750 M 211.286 207.500 C 211.294 210.250, 211.488 211.256, 211.718 209.736 C 211.947 208.216, 211.941 205.966, 211.704 204.736 C 211.467 203.506, 211.279 204.750, 211.286 207.500 M 154.252 207.500 C 154.263 209.700, 154.468 210.482, 154.707 209.238 C 154.946 207.994, 154.937 206.194, 154.687 205.238 C 154.437 204.282, 154.241 205.300, 154.252 207.500 M 189.746 208.750 C 189.485 210.813, 189.647 213.175, 190.106 214 C 190.637 214.956, 190.950 213.597, 190.970 210.250 C 191.005 204.117, 190.421 203.401, 189.746 208.750 M 167 208 C 167 208.550, 168.575 209, 170.500 209 C 172.425 209, 174 208.550, 174 208 C 174 207.450, 172.425 207, 170.500 207 C 168.575 207, 167 207.450, 167 208 M 181.198 207.531 C 182.192 208.526, 186.058 208.903, 185.468 207.948 C 185.146 207.426, 183.934 207, 182.774 207 C 181.615 207, 180.906 207.239, 181.198 207.531 M 195 208 C 195 208.550, 196.575 209, 198.500 209 C 200.425 209, 202 208.550, 202 208 C 202 207.450, 200.425 207, 198.500 207 C 196.575 207, 195 207.450, 195 208 M 162.158 213 C 162.158 214.375, 162.385 214.938, 162.662 214.250 C 162.940 213.563, 162.940 212.438, 162.662 211.750 C 162.385 211.063, 162.158 211.625, 162.158 213" stroke="none" fill="#fbda14" fill-rule="evenodd"/><path d="" stroke="none" fill="#fbdb07" fill-rule="evenodd"/><path d="" stroke="none" fill="#fcda03" fill-rule="evenodd"/><path d="M 156.601 17.045 C 153.356 17.551, 150.467 18.200, 150.180 18.487 C 149.893 18.773, 150.610 20.020, 151.772 21.257 C 154.734 24.410, 158.790 33.642, 160.038 40.073 C 161.308 46.616, 160.441 55.725, 157.910 62.440 C 156.885 65.158, 156.202 67.535, 156.391 67.724 C 156.579 67.913, 160.281 67.084, 164.617 65.882 C 170.526 64.244, 175.161 63.708, 183.128 63.742 C 188.974 63.767, 194.623 64.063, 195.681 64.399 C 199.345 65.562, 205.022 80.038, 206.978 93.204 C 209.533 110.398, 203.466 131.934, 190.732 150.871 L 185.776 158.242 189.444 161.871 L 193.112 165.500 195.110 163 C 196.208 161.625, 197.666 159.815, 198.349 158.977 C 201.914 154.607, 206.107 147.656, 209.454 140.569 C 221.590 114.869, 222.639 90.897, 212.496 71.040 C 210.658 67.443, 208.496 62.879, 207.690 60.897 C 206.439 57.820, 205.515 57.105, 201.362 55.996 C 198.688 55.282, 190.952 54.542, 184.172 54.350 L 171.844 54.002 171.639 43.751 C 171.519 37.743, 170.911 32.560, 170.171 31.229 C 169.476 29.980, 169.180 28.518, 169.513 27.979 C 170.141 26.962, 195.228 26.562, 196.220 27.553 C 196.524 27.857, 196.149 30.178, 195.386 32.712 C 193.913 37.607, 193.494 48.570, 194.750 49.344 C 195.162 49.598, 197.569 50.115, 200.098 50.493 L 204.696 51.181 205.356 44.081 C 206.129 35.766, 208.465 29.092, 212.816 22.767 L 215.943 18.222 213.222 17.549 C 208.791 16.452, 163.010 16.045, 156.601 17.045 M 155.419 74.427 C 150.575 76.630, 150.261 77.014, 148.711 82.619 C 141.660 108.116, 151.409 141.024, 173.473 166.201 C 175.063 168.016, 179.722 173.223, 183.826 177.773 C 187.930 182.323, 190.960 186.373, 190.560 186.773 C 189.597 187.736, 176.379 187.712, 175.413 186.746 C 174.998 186.331, 175.636 184.952, 176.829 183.682 C 179.754 180.569, 179.567 178.912, 175.901 175.437 L 172.803 172.500 167.401 178.412 C 162.313 183.982, 162 184.625, 162 189.539 L 162 194.753 170.934 196.877 C 182.027 199.513, 183.330 199.514, 194.750 196.884 L 204 194.753 204 189.790 C 204 185.113, 203.664 184.472, 198.176 178.663 C 172.690 151.691, 161.895 132.526, 158.935 109 C 157.925 100.970, 157.986 98.079, 159.328 90.318 C 160.201 85.269, 161.610 79.476, 162.458 77.446 C 163.306 75.417, 164 73.361, 164 72.878 C 164 71.410, 160.768 71.993, 155.419 74.427 M 85.449 246.551 C 81.242 248.627, 78.997 252.851, 79.015 258.654 C 79.045 268.550, 83.824 272.311, 95.699 271.785 C 106.669 271.299, 112.644 265.936, 106.026 262.514 C 103.103 261.002, 102.781 261.027, 100.329 262.956 C 96.796 265.735, 92.481 265.572, 89.455 262.545 C 86.460 259.551, 86.387 258.049, 89.073 254.635 C 91.586 251.440, 96.548 251.085, 100.115 253.845 C 102.237 255.487, 102.859 255.542, 105.750 254.342 C 107.537 253.601, 109 252.546, 109 251.997 C 109 250.482, 105.234 247.039, 102.395 245.960 C 98.586 244.512, 88.896 244.850, 85.449 246.551 M 118.198 246.673 C 114.037 248.723, 112 252.611, 112 258.500 C 112 267.700, 116.987 272.001, 127.651 271.998 C 135.027 271.996, 139.927 269.647, 142.248 265 C 145.688 258.115, 143.329 249.913, 137 246.752 C 132.512 244.510, 122.671 244.468, 118.198 246.673 M 147.523 245.810 C 147.235 246.098, 147 250.351, 147 255.262 C 147 265.471, 148.546 269.298, 153.348 270.971 C 157.795 272.522, 166.761 272.207, 170.643 270.365 C 175.820 267.909, 177.128 264.476, 176.789 254.236 C 176.477 244.820, 175.923 244.049, 170.460 245.421 C 168.208 245.986, 168.062 246.495, 167.789 254.738 C 167.507 263.243, 167.432 263.481, 164.750 264.422 C 162.984 265.041, 161.016 265.041, 159.250 264.422 C 156.567 263.481, 156.493 263.244, 156.211 254.729 C 156.052 249.928, 155.602 245.949, 155.211 245.887 C 152.287 245.422, 147.954 245.379, 147.523 245.810 M 180 259.057 L 180 272.115 184.245 271.807 C 188.091 271.529, 188.538 271.218, 189.002 268.500 C 189.509 265.523, 189.574 265.496, 197.392 264.942 C 204.026 264.471, 205.566 264.019, 207.136 262.081 C 209.960 258.593, 209.655 251.565, 206.545 248.455 C 204.211 246.120, 203.501 246, 192.045 246 L 180 246 180 259.057 M 212.220 258.750 L 212.500 271.500 226.250 271.778 L 240 272.056 240 268.528 L 240 265 230.427 265 C 221.843 265, 220.889 264.819, 221.203 263.250 C 221.501 261.759, 222.732 261.500, 229.526 261.500 C 237.482 261.500, 237.501 261.494, 237.816 258.750 C 238.017 257.003, 237.653 255.978, 236.816 255.940 C 236.092 255.906, 232.357 255.794, 228.516 255.690 C 222.752 255.533, 221.473 255.194, 221.193 253.750 C 220.889 252.182, 221.846 252, 230.427 252 L 240 252 240 249 L 240 246 225.970 246 L 211.940 246 212.220 258.750 M 122 254 C 119.656 256.344, 119.420 259.825, 121.419 262.559 C 123.131 264.900, 130.772 265.264, 133.346 263.128 C 135.822 261.073, 135.488 255.455, 132.777 253.557 C 129.656 251.370, 124.414 251.586, 122 254 M 189 255.500 C 189 258.033, 189.148 258.092, 194.750 257.800 C 199.733 257.540, 200.500 257.233, 200.500 255.500 C 200.500 253.767, 199.733 253.460, 194.750 253.200 C 189.148 252.908, 189 252.967, 189 255.500 M 254 264.880 L 254 272 258.865 272 C 264.876 272, 269 269.200, 269 265.119 C 269 260.322, 266.912 258.694, 260.134 258.203 L 254 257.760 254 264.880 M 270.901 258.750 C 270.047 265.204, 270.915 269.690, 273.313 271.214 C 275.361 272.517, 281.458 272.068, 283.777 270.443 C 285.611 269.159, 286 267.935, 286 263.443 C 286 258.667, 285.755 258, 284 258 C 282.358 258, 281.997 258.672, 281.985 261.750 C 281.965 266.594, 280.846 268.256, 277.887 267.837 C 275.806 267.543, 275.461 266.891, 275.195 262.750 C 274.943 258.816, 274.556 258, 272.945 258 C 271.875 258, 270.955 258.337, 270.901 258.750 M 258.389 263.430 C 257.393 266.025, 258.788 268.169, 261.246 267.820 C 262.898 267.585, 263.500 266.833, 263.500 265 C 263.500 263.167, 262.898 262.415, 261.246 262.180 C 259.893 261.988, 258.750 262.488, 258.389 263.430 M 116.607 278.582 C 115.557 281.318, 115.927 282, 118.465 282 C 120.567 282, 123 279.622, 123 277.566 C 123 276.198, 117.166 277.125, 116.607 278.582 M 181.667 277.667 C 181.300 278.033, 181 279.158, 181 280.167 C 181 283.057, 185.428 282.550, 186.818 279.500 C 187.886 277.156, 187.782 277, 185.145 277 C 183.599 277, 182.033 277.300, 181.667 277.667 M 78.643 284.028 C 73.991 285.422, 72 287.873, 72 292.206 C 72 295.707, 72.352 296.249, 75.468 297.551 C 77.375 298.348, 81.313 299.007, 84.218 299.015 C 90.352 299.033, 93.438 300.384, 91 301.985 C 88.611 303.553, 81.486 302.890, 75.950 300.585 C 74.846 300.125, 73.911 300.963, 72.703 303.496 L 71.007 307.052 73.754 308.182 C 77.249 309.620, 88.899 310.429, 93.549 309.557 C 95.509 309.189, 97.986 308.014, 99.056 306.944 C 101.427 304.573, 101.636 298.779, 99.429 296.571 C 97.537 294.680, 98.959 295.045, 89.712 294.075 C 81.521 293.216, 80.386 292.802, 81.459 291.067 C 82.413 289.523, 89.062 289.758, 94.030 291.511 C 96.385 292.342, 98.376 292.904, 98.454 292.761 C 100.325 289.314, 100.753 287.042, 99.694 286.180 C 96.288 283.407, 84.676 282.220, 78.643 284.028 M 207.796 284.640 C 203.901 286.256, 200 292.365, 200 296.848 C 200 300.425, 202.546 305.498, 205.514 307.832 C 209.192 310.725, 216.700 310.811, 220.273 308 C 223.468 305.487, 224 305.496, 224 308.063 C 224 309.789, 224.532 310.075, 227.250 309.813 L 230.500 309.500 230.500 302.500 L 230.500 295.500 223 295.500 C 215.667 295.500, 215.500 295.556, 215.500 298 C 215.500 299.988, 216.067 300.565, 218.267 300.818 C 222.106 301.259, 220.649 303, 216.441 303 C 212.534 303, 209 300.129, 209 296.955 C 209 294.190, 213.371 289.992, 216.205 290.035 C 217.467 290.055, 219.601 290.681, 220.946 291.426 C 223.040 292.585, 223.871 292.552, 226.715 291.196 C 228.542 290.325, 229.894 289.137, 229.719 288.556 C 229.543 287.975, 227.415 286.488, 224.988 285.250 C 219.822 282.615, 213.238 282.382, 207.796 284.640 M 104.550 296.750 L 104.644 309.500 118.566 309.500 L 132.487 309.500 132.494 306.500 L 132.500 303.500 122.750 303.214 C 115.117 302.990, 113 302.618, 113 301.504 C 113 300.412, 114.917 300.013, 121.250 299.790 C 129.425 299.503, 129.503 299.475, 129.816 296.750 L 130.133 294 121.566 294 C 113.667 294, 113 293.844, 113 292 C 113 290.140, 113.667 290, 122.500 290 L 132 290 132 287 L 132 284 118.228 284 L 104.456 284 104.550 296.750 M 136 296.954 L 136 310 140.587 310 L 145.173 310 144.872 302.048 C 144.706 297.675, 144.816 293.850, 145.116 293.550 C 145.417 293.250, 147.275 296.716, 149.247 301.252 L 152.832 309.500 159.416 309.796 L 166 310.091 166 297.046 L 166 284 161.362 284 L 156.725 284 157.415 292.500 C 157.794 297.175, 157.726 301, 157.263 301 C 156.800 301, 154.851 297.288, 152.932 292.750 L 149.442 284.500 142.721 284.204 L 136 283.909 136 296.954 M 169 297 L 169 310 183 310 L 197 310 197 306.536 L 197 303.072 187.495 302.786 C 175.633 302.429, 174.401 300.609, 185.750 300.210 L 194 299.919 194 296.960 L 194 294 186 294 C 178.667 294, 178 293.833, 178 292 C 178 290.140, 178.667 290, 187.500 290 L 197 290 197 287 L 197 284 183 284 L 169 284 169 297 M 237.584 295.784 C 235.063 302.265, 233 308.115, 233 308.784 C 233 309.537, 234.531 310, 237.025 310 C 240.398 310, 241.203 309.595, 242 307.500 C 242.868 305.216, 243.470 305, 248.956 305 C 254.528 305, 255.007 305.180, 255.589 307.500 C 256.139 309.692, 256.758 310, 260.608 310 C 263.024 310, 265 309.580, 265 309.067 C 265 308.553, 262.913 302.703, 260.363 296.067 L 255.726 284 248.947 284 L 242.168 284 237.584 295.784 M 267 297.030 L 267 310.060 279.750 309.780 L 292.500 309.500 292.500 306 L 292.500 302.500 284.500 302.500 L 276.500 302.500 276.212 293.250 L 275.925 284 271.462 284 L 267 284 267 297.030 M 247.161 293.547 C 245.260 297.717, 245.693 299, 249 299 C 252.399 299, 252.446 298.877, 250.799 294.321 C 249.357 290.333, 248.690 290.191, 247.161 293.547" stroke="none" fill="#1f964a" fill-rule="evenodd"/><path d="M 0 163.003 L 0 326.005 182.750 325.753 L 365.500 325.500 365.753 162.750 L 366.006 0 183.003 0 L 0 0 0 163.003 M 0.488 163.500 C 0.488 253.150, 0.606 289.677, 0.750 244.671 C 0.894 199.665, 0.894 126.315, 0.750 81.671 C 0.606 37.027, 0.488 73.850, 0.488 163.500 M 156.601 17.045 C 153.356 17.551, 150.467 18.200, 150.180 18.487 C 149.893 18.773, 150.610 20.020, 151.772 21.257 C 154.734 24.410, 158.790 33.642, 160.038 40.073 C 161.308 46.616, 160.441 55.725, 157.910 62.440 C 156.885 65.158, 156.202 67.535, 156.391 67.724 C 156.579 67.913, 160.281 67.084, 164.617 65.882 C 170.526 64.244, 175.161 63.708, 183.128 63.742 C 188.974 63.767, 194.631 64.065, 195.700 64.405 C 197.814 65.076, 203.810 76.523, 202.653 77.680 C 202.266 78.067, 200.499 77.886, 198.725 77.277 C 191.296 74.729, 173.753 74.875, 165.139 77.557 C 162.918 78.248, 162.818 78.103, 163.468 75.146 C 164.330 71.221, 163.106 71.094, 155.761 74.342 C 150.764 76.552, 150.364 77.004, 148.681 82.342 C 147.700 85.454, 146.427 88, 145.852 88 C 144.422 88, 133.168 99.896, 132.446 102.170 C 132.127 103.176, 131.526 104, 131.111 104 C 130.232 104, 126.681 111.822, 125.095 117.250 C 124.493 119.313, 123.550 122.494, 123 124.321 C 121.727 128.550, 121.701 143.402, 122.960 147.429 C 123.488 149.118, 124.487 152.638, 125.179 155.250 C 125.871 157.863, 126.788 160, 127.218 160 C 127.648 160, 128 160.900, 128 162 C 128 163.100, 128.450 164, 129 164 C 129.550 164, 130 164.481, 130 165.070 C 130 168.368, 142.041 182.213, 147.262 184.919 C 148.768 185.699, 150 186.650, 150 187.032 C 150 187.414, 152.700 188.939, 156 190.420 C 159.300 191.900, 162 193.481, 162 193.933 C 162 194.938, 178.718 199, 182.855 199 C 187.794 199, 203.441 194.920, 204.300 193.408 C 204.740 192.634, 205.752 192, 206.550 192 C 207.347 192, 208 191.550, 208 191 C 208 190.450, 208.900 190, 210 190 C 211.100 190, 212 189.550, 212 189 C 212 188.450, 212.563 187.999, 213.250 187.999 C 213.938 187.998, 215.793 186.886, 217.372 185.527 C 218.952 184.169, 220.977 182.799, 221.872 182.484 C 222.768 182.168, 225.300 179.646, 227.500 176.879 C 229.700 174.112, 231.950 171.320, 232.500 170.674 C 233.434 169.577, 237.480 162.370, 239.054 159 C 240.546 155.805, 242 150.240, 242 147.726 C 242 146.278, 242.522 143.948, 243.161 142.546 C 244.377 139.877, 243.153 127.090, 240.860 118.500 C 239.543 113.565, 234.407 103.353, 231.877 100.638 C 230.845 99.530, 230 98.222, 230 97.733 C 230 96.894, 224.692 91.536, 220.164 87.806 C 219.033 86.874, 217.586 84.174, 216.949 81.806 C 216.312 79.438, 214.298 74.575, 212.473 71 C 210.648 67.425, 208.496 62.879, 207.690 60.897 C 206.439 57.820, 205.515 57.105, 201.362 55.996 C 198.688 55.282, 190.952 54.542, 184.172 54.350 L 171.844 54.002 171.639 43.751 C 171.519 37.743, 170.911 32.560, 170.171 31.229 C 169.476 29.980, 169.180 28.518, 169.513 27.979 C 170.141 26.962, 195.228 26.562, 196.220 27.553 C 196.524 27.857, 196.149 30.178, 195.386 32.712 C 193.913 37.607, 193.494 48.570, 194.750 49.344 C 195.162 49.598, 197.569 50.115, 200.098 50.493 L 204.696 51.181 205.356 44.081 C 206.129 35.766, 208.465 29.092, 212.816 22.767 L 215.943 18.222 213.222 17.549 C 208.791 16.452, 163.010 16.045, 156.601 17.045 M 143.105 64.029 C 124.603 74.163, 110.409 91.878, 103.868 113 C 101.858 119.490, 101.547 122.587, 101.554 136 C 101.562 153.237, 102.474 157.689, 108.719 171 C 115.205 184.826, 125.250 196.287, 138.411 204.879 C 151.261 213.267, 155 213.865, 155 207.531 C 155 203.363, 153.504 201.768, 145.298 197.187 C 125.815 186.312, 112.640 164.139, 111.306 139.982 C 110.169 119.409, 115.975 103.122, 130.477 86.200 C 131.564 84.932, 134.939 82.005, 137.977 79.697 C 141.014 77.389, 144.002 74.858, 144.616 74.073 C 146.152 72.109, 149.260 63.273, 148.842 62.062 C 148.654 61.518, 146.072 62.404, 143.105 64.029 M 218.746 68.471 C 220.667 73.313, 222.217 75.542, 224.906 77.330 C 232.927 82.663, 242.180 93.331, 246.821 102.598 C 253.120 115.175, 254.495 121.190, 254.455 136 C 254.424 147.304, 254.044 150.657, 252.114 156.610 C 246.163 174.972, 234.378 189.502, 217.695 199.043 C 211.605 202.527, 211.495 202.666, 211.195 207.293 C 210.923 211.501, 211.112 212, 212.985 212 C 217.577 212, 231.366 203.305, 240.204 194.837 C 258.744 177.072, 268.142 148.947, 264.120 123.265 C 260.284 98.775, 245.481 77.201, 223.912 64.666 C 216.474 60.343, 215.737 60.886, 218.746 68.471 M 162.200 209.740 C 162.430 214.149, 162.886 215.554, 164.165 215.797 C 165.132 215.981, 166.095 215.276, 166.464 214.114 C 166.913 212.698, 168.140 212.025, 170.671 211.807 C 174.007 211.520, 174.264 211.253, 174.574 207.750 L 174.904 204 168.402 204 L 161.900 204 162.200 209.740 M 177.244 205.156 C 175.738 206.662, 175.594 210, 177.035 210 C 177.716 210, 177.681 210.727, 176.932 212.127 C 176.044 213.786, 176.091 214.443, 177.147 215.112 C 179.360 216.514, 186.729 216.128, 188.331 214.526 C 189.631 213.227, 189.873 213.227, 190.371 214.526 C 191.189 216.655, 194.099 216.338, 194.696 214.054 C 195.056 212.677, 196.233 212.020, 198.724 211.804 C 202.008 211.520, 202.265 211.247, 202.578 207.703 L 202.913 203.907 196.706 204.203 L 190.500 204.500 189.882 208 C 189.239 211.637, 188.794 211.287, 188.608 207 C 188.510 204.723, 188.054 204.474, 183.494 204.206 C 180.464 204.028, 177.997 204.403, 177.244 205.156 M 85.449 246.551 C 81.242 248.627, 78.997 252.851, 79.015 258.654 C 79.045 268.550, 83.824 272.311, 95.699 271.785 C 106.669 271.299, 112.644 265.936, 106.026 262.514 C 103.103 261.002, 102.781 261.027, 100.329 262.956 C 96.796 265.735, 92.481 265.572, 89.455 262.545 C 86.460 259.551, 86.387 258.049, 89.073 254.635 C 91.586 251.440, 96.548 251.085, 100.115 253.845 C 102.237 255.487, 102.859 255.542, 105.750 254.342 C 107.537 253.601, 109 252.546, 109 251.997 C 109 250.482, 105.234 247.039, 102.395 245.960 C 98.586 244.512, 88.896 244.850, 85.449 246.551 M 118.198 246.673 C 114.037 248.723, 112 252.611, 112 258.500 C 112 267.700, 116.987 272.001, 127.651 271.998 C 135.027 271.996, 139.927 269.647, 142.248 265 C 145.688 258.115, 143.329 249.913, 137 246.752 C 132.512 244.510, 122.671 244.468, 118.198 246.673 M 147.523 245.810 C 147.235 246.098, 147 250.351, 147 255.262 C 147 265.471, 148.546 269.298, 153.348 270.971 C 157.795 272.522, 166.761 272.207, 170.643 270.365 C 175.820 267.909, 177.128 264.476, 176.789 254.236 C 176.477 244.820, 175.923 244.049, 170.460 245.421 C 168.208 245.986, 168.062 246.495, 167.789 254.738 C 167.507 263.243, 167.432 263.481, 164.750 264.422 C 162.984 265.041, 161.016 265.041, 159.250 264.422 C 156.567 263.481, 156.493 263.244, 156.211 254.729 C 156.052 249.928, 155.602 245.949, 155.211 245.887 C 152.287 245.422, 147.954 245.379, 147.523 245.810 M 180 259.057 L 180 272.115 184.245 271.807 C 188.091 271.529, 188.538 271.218, 189.002 268.500 C 189.509 265.523, 189.574 265.496, 197.392 264.942 C 204.026 264.471, 205.566 264.019, 207.136 262.081 C 209.960 258.593, 209.655 251.565, 206.545 248.455 C 204.211 246.120, 203.501 246, 192.045 246 L 180 246 180 259.057 M 212.220 258.750 L 212.500 271.500 226.250 271.778 L 240 272.056 240 268.528 L 240 265 230.427 265 C 221.843 265, 220.889 264.819, 221.203 263.250 C 221.501 261.759, 222.732 261.500, 229.526 261.500 C 237.482 261.500, 237.501 261.494, 237.816 258.750 C 238.017 257.003, 237.653 255.978, 236.816 255.940 C 236.092 255.906, 232.357 255.794, 228.516 255.690 C 222.752 255.533, 221.473 255.194, 221.193 253.750 C 220.889 252.182, 221.846 252, 230.427 252 L 240 252 240 249 L 240 246 225.970 246 L 211.940 246 212.220 258.750 M 122 254 C 119.656 256.344, 119.420 259.825, 121.419 262.559 C 123.131 264.900, 130.772 265.264, 133.346 263.128 C 135.822 261.073, 135.488 255.455, 132.777 253.557 C 129.656 251.370, 124.414 251.586, 122 254 M 189 255.500 C 189 258.033, 189.148 258.092, 194.750 257.800 C 199.733 257.540, 200.500 257.233, 200.500 255.500 C 200.500 253.767, 199.733 253.460, 194.750 253.200 C 189.148 252.908, 189 252.967, 189 255.500 M 254 264.880 L 254 272 258.865 272 C 264.876 272, 269 269.200, 269 265.119 C 269 260.322, 266.912 258.694, 260.134 258.203 L 254 257.760 254 264.880 M 270.901 258.750 C 270.047 265.204, 270.915 269.690, 273.313 271.214 C 275.361 272.517, 281.458 272.068, 283.777 270.443 C 285.611 269.159, 286 267.935, 286 263.443 C 286 258.667, 285.755 258, 284 258 C 282.358 258, 281.997 258.672, 281.985 261.750 C 281.965 266.594, 280.846 268.256, 277.887 267.837 C 275.806 267.543, 275.461 266.891, 275.195 262.750 C 274.943 258.816, 274.556 258, 272.945 258 C 271.875 258, 270.955 258.337, 270.901 258.750 M 258.389 263.430 C 257.393 266.025, 258.788 268.169, 261.246 267.820 C 262.898 267.585, 263.500 266.833, 263.500 265 C 263.500 263.167, 262.898 262.415, 261.246 262.180 C 259.893 261.988, 258.750 262.488, 258.389 263.430 M 116.607 278.582 C 115.557 281.318, 115.927 282, 118.465 282 C 120.567 282, 123 279.622, 123 277.566 C 123 276.198, 117.166 277.125, 116.607 278.582 M 181.667 277.667 C 181.300 278.033, 181 279.158, 181 280.167 C 181 283.057, 185.428 282.550, 186.818 279.500 C 187.886 277.156, 187.782 277, 185.145 277 C 183.599 277, 182.033 277.300, 181.667 277.667 M 78.643 284.028 C 73.991 285.422, 72 287.873, 72 292.206 C 72 295.707, 72.352 296.249, 75.468 297.551 C 77.375 298.348, 81.313 299.007, 84.218 299.015 C 90.352 299.033, 93.438 300.384, 91 301.985 C 88.611 303.553, 81.486 302.890, 75.950 300.585 C 74.846 300.125, 73.911 300.963, 72.703 303.496 L 71.007 307.052 73.754 308.182 C 77.249 309.620, 88.899 310.429, 93.549 309.557 C 95.509 309.189, 97.986 308.014, 99.056 306.944 C 101.427 304.573, 101.636 298.779, 99.429 296.571 C 97.537 294.680, 98.959 295.045, 89.712 294.075 C 81.521 293.216, 80.386 292.802, 81.459 291.067 C 82.413 289.523, 89.062 289.758, 94.030 291.511 C 96.385 292.342, 98.376 292.904, 98.454 292.761 C 100.325 289.314, 100.753 287.042, 99.694 286.180 C 96.288 283.407, 84.676 282.220, 78.643 284.028 M 207.796 284.640 C 203.901 286.256, 200 292.365, 200 296.848 C 200 300.425, 202.546 305.498, 205.514 307.832 C 209.192 310.725, 216.700 310.811, 220.273 308 C 223.468 305.487, 224 305.496, 224 308.063 C 224 309.789, 224.532 310.075, 227.250 309.813 L 230.500 309.500 230.500 302.500 L 230.500 295.500 223 295.500 C 215.667 295.500, 215.500 295.556, 215.500 298 C 215.500 299.988, 216.067 300.565, 218.267 300.818 C 222.106 301.259, 220.649 303, 216.441 303 C 212.534 303, 209 300.129, 209 296.955 C 209 294.190, 213.371 289.992, 216.205 290.035 C 217.467 290.055, 219.601 290.681, 220.946 291.426 C 223.040 292.585, 223.871 292.552, 226.715 291.196 C 228.542 290.325, 229.894 289.137, 229.719 288.556 C 229.543 287.975, 227.415 286.488, 224.988 285.250 C 219.822 282.615, 213.238 282.382, 207.796 284.640 M 104.550 296.750 L 104.644 309.500 118.566 309.500 L 132.487 309.500 132.494 306.500 L 132.500 303.500 122.750 303.214 C 115.117 302.990, 113 302.618, 113 301.504 C 113 300.412, 114.917 300.013, 121.250 299.790 C 129.425 299.503, 129.503 299.475, 129.816 296.750 L 130.133 294 121.566 294 C 113.667 294, 113 293.844, 113 292 C 113 290.140, 113.667 290, 122.500 290 L 132 290 132 287 L 132 284 118.228 284 L 104.456 284 104.550 296.750 M 136 296.954 L 136 310 140.587 310 L 145.173 310 144.872 302.048 C 144.706 297.675, 144.816 293.850, 145.116 293.550 C 145.417 293.250, 147.275 296.716, 149.247 301.252 L 152.832 309.500 159.416 309.796 L 166 310.091 166 297.046 L 166 284 161.362 284 L 156.725 284 157.415 292.500 C 157.794 297.175, 157.726 301, 157.263 301 C 156.800 301, 154.851 297.288, 152.932 292.750 L 149.442 284.500 142.721 284.204 L 136 283.909 136 296.954 M 169 297 L 169 310 183 310 L 197 310 197 306.536 L 197 303.072 187.495 302.786 C 175.633 302.429, 174.401 300.609, 185.750 300.210 L 194 299.919 194 296.960 L 194 294 186 294 C 178.667 294, 178 293.833, 178 292 C 178 290.140, 178.667 290, 187.500 290 L 197 290 197 287 L 197 284 183 284 L 169 284 169 297 M 237.584 295.784 C 235.063 302.265, 233 308.115, 233 308.784 C 233 309.537, 234.531 310, 237.025 310 C 240.398 310, 241.203 309.595, 242 307.500 C 242.868 305.216, 243.470 305, 248.956 305 C 254.528 305, 255.007 305.180, 255.589 307.500 C 256.139 309.692, 256.758 310, 260.608 310 C 263.024 310, 265 309.580, 265 309.067 C 265 308.553, 262.913 302.703, 260.363 296.067 L 255.726 284 248.947 284 L 242.168 284 237.584 295.784 M 267 297.030 L 267 310.060 279.750 309.780 L 292.500 309.500 292.500 306 L 292.500 302.500 284.500 302.500 L 276.500 302.500 276.212 293.250 L 275.925 284 271.462 284 L 267 284 267 297.030 M 247.161 293.547 C 245.260 297.717, 245.693 299, 249 299 C 252.399 299, 252.446 298.877, 250.799 294.321 C 249.357 290.333, 248.690 290.191, 247.161 293.547" stroke="none" fill="#f8f7e5" fill-rule="evenodd"/></svg>